<svg xmlns="http://www.w3.org/2000/svg" xmlns:xlink="http://www.w3.org/1999/xlink" width="500" zoomAndPan="magnify" viewBox="0 0 375 374.999991" height="500" preserveAspectRatio="xMidYMid meet" version="1.0"><defs><g/><clipPath id="4588558113"><path d="M 57.324219 131.617188 L 149.574219 131.617188 L 149.574219 243.367188 L 57.324219 243.367188 Z M 57.324219 131.617188 " clip-rule="nonzero"/></clipPath><clipPath id="b2e213ba5c"><path d="M 19 0.617188 L 72 0.617188 L 72 19 L 19 19 Z M 19 0.617188 " clip-rule="nonzero"/></clipPath><clipPath id="a90d1d385a"><path d="M 0.324219 19 L 92 19 L 92 112.367188 L 0.324219 112.367188 Z M 0.324219 19 " clip-rule="nonzero"/></clipPath><clipPath id="765805b34b"><rect x="0" width="93" y="0" height="113"/></clipPath><clipPath id="0c95a9754b"><rect x="0" width="163" y="0" height="95"/></clipPath><clipPath id="7d401d810a"><rect x="0" width="32" y="0" height="10"/></clipPath><clipPath id="858e0cdf91"><path d="M 305.089844 203.023438 L 317.664062 203.023438 L 317.664062 215.597656 L 305.089844 215.597656 Z M 305.089844 203.023438 " clip-rule="nonzero"/></clipPath><clipPath id="afa9f69b73"><path d="M 311.375 203.023438 C 307.902344 203.023438 305.089844 205.835938 305.089844 209.308594 C 305.089844 212.78125 307.902344 215.597656 311.375 215.597656 C 314.847656 215.597656 317.664062 212.78125 317.664062 209.308594 C 317.664062 205.835938 314.847656 203.023438 311.375 203.023438 Z M 311.375 203.023438 " clip-rule="nonzero"/></clipPath><clipPath id="c1506df491"><rect x="0" width="7" y="0" height="9"/></clipPath></defs><g clip-path="url(#4588558113)"><g transform="matrix(1, 0, 0, 1, 57, 131)"><g clip-path="url(#765805b34b)"><path fill="#ffffff" d="M 70.796875 9.867188 C 69.390625 25.074219 67.980469 37.792969 66.507812 53.375 C 66.378906 54.730469 65.710938 55.996094 64.625 56.8125 C 62.953125 58.058594 60.910156 58.847656 58.890625 59.457031 C 49.992188 62.140625 40.300781 62.113281 31.042969 59.398438 C 29.308594 58.890625 28.011719 57.433594 27.695312 55.652344 C 24.902344 40.019531 22.691406 25.378906 20.71875 9.621094 Z M 70.796875 9.867188 " fill-opacity="1" fill-rule="nonzero"/><path fill="#000000" d="M 45.214844 62.246094 C 49.941406 62.246094 54.617188 61.570312 59.117188 60.210938 C 60.75 59.71875 63.148438 58.898438 65.09375 57.441406 C 66.335938 56.511719 67.136719 55.058594 67.289062 53.453125 C 67.980469 46.125 68.667969 39.359375 69.332031 32.816406 C 70.101562 25.195312 70.832031 18 71.578125 9.941406 L 70.015625 9.796875 C 69.269531 17.847656 68.539062 25.042969 67.769531 32.65625 C 67.105469 39.203125 66.417969 45.972656 65.722656 53.300781 C 65.613281 54.46875 65.042969 55.515625 64.15625 56.179688 C 62.40625 57.488281 60.183594 58.246094 58.664062 58.703125 C 49.894531 61.347656 40.417969 61.328125 31.265625 58.644531 C 29.828125 58.222656 28.730469 56.996094 28.464844 55.515625 C 25.710938 40.082031 23.496094 25.46875 21.496094 9.523438 L 19.9375 9.71875 C 21.941406 25.691406 24.160156 40.332031 26.921875 55.792969 C 27.289062 57.855469 28.820312 59.566406 30.824219 60.15625 C 35.582031 61.550781 40.421875 62.246094 45.214844 62.246094 Z M 45.214844 62.246094 " fill-opacity="1" fill-rule="nonzero"/><path fill="#ffffff" d="M 20.761719 9.773438 C 20.761719 10.046875 20.800781 10.320312 20.882812 10.59375 C 20.960938 10.863281 21.082031 11.132812 21.242188 11.402344 C 21.402344 11.671875 21.601562 11.933594 21.835938 12.195312 C 22.074219 12.457031 22.351562 12.714844 22.664062 12.96875 C 22.976562 13.21875 23.324219 13.46875 23.710938 13.707031 C 24.097656 13.949219 24.515625 14.183594 24.972656 14.410156 C 25.425781 14.636719 25.914062 14.859375 26.433594 15.070312 C 26.949219 15.28125 27.5 15.484375 28.078125 15.675781 C 28.65625 15.871094 29.261719 16.050781 29.894531 16.226562 C 30.527344 16.398438 31.183594 16.5625 31.863281 16.714844 C 32.542969 16.867188 33.242188 17.007812 33.964844 17.136719 C 34.6875 17.265625 35.425781 17.378906 36.179688 17.484375 C 36.9375 17.589844 37.707031 17.683594 38.488281 17.761719 C 39.273438 17.839844 40.066406 17.90625 40.867188 17.960938 C 41.667969 18.011719 42.476562 18.054688 43.292969 18.082031 C 44.105469 18.105469 44.921875 18.121094 45.738281 18.121094 C 46.558594 18.121094 47.375 18.105469 48.1875 18.082031 C 49.003906 18.054688 49.8125 18.011719 50.613281 17.960938 C 51.414062 17.90625 52.207031 17.839844 52.992188 17.761719 C 53.773438 17.683594 54.542969 17.589844 55.296875 17.484375 C 56.054688 17.378906 56.792969 17.265625 57.515625 17.136719 C 58.234375 17.007812 58.9375 16.867188 59.617188 16.714844 C 60.296875 16.5625 60.953125 16.398438 61.585938 16.226562 C 62.21875 16.050781 62.824219 15.871094 63.402344 15.675781 C 63.980469 15.484375 64.53125 15.28125 65.046875 15.070312 C 65.566406 14.859375 66.054688 14.636719 66.507812 14.410156 C 66.964844 14.183594 67.382812 13.949219 67.769531 13.707031 C 68.15625 13.46875 68.503906 13.21875 68.816406 12.96875 C 69.128906 12.714844 69.40625 12.457031 69.640625 12.195312 C 69.878906 11.933594 70.078125 11.671875 70.238281 11.402344 C 70.398438 11.132812 70.519531 10.863281 70.597656 10.59375 C 70.679688 10.320312 70.71875 10.046875 70.71875 9.773438 C 70.71875 9.5 70.679688 9.226562 70.597656 8.957031 C 70.519531 8.683594 70.398438 8.414062 70.238281 8.144531 C 70.078125 7.878906 69.878906 7.613281 69.640625 7.351562 C 69.40625 7.089844 69.128906 6.832031 68.816406 6.578125 C 68.503906 6.328125 68.15625 6.082031 67.769531 5.839844 C 67.382812 5.597656 66.964844 5.363281 66.507812 5.136719 C 66.054688 4.910156 65.566406 4.691406 65.046875 4.480469 C 64.53125 4.265625 63.980469 4.066406 63.402344 3.871094 C 62.824219 3.679688 62.21875 3.496094 61.585938 3.320312 C 60.953125 3.148438 60.296875 2.984375 59.617188 2.832031 C 58.9375 2.683594 58.234375 2.542969 57.515625 2.414062 C 56.792969 2.285156 56.054688 2.167969 55.296875 2.0625 C 54.542969 1.957031 53.773438 1.867188 52.992188 1.785156 C 52.207031 1.707031 51.414062 1.640625 50.613281 1.585938 C 49.8125 1.535156 49.003906 1.492188 48.1875 1.46875 C 47.375 1.441406 46.558594 1.425781 45.738281 1.425781 C 44.921875 1.425781 44.105469 1.441406 43.292969 1.46875 C 42.476562 1.492188 41.667969 1.535156 40.867188 1.585938 C 40.066406 1.640625 39.273438 1.707031 38.488281 1.785156 C 37.707031 1.867188 36.9375 1.957031 36.179688 2.0625 C 35.425781 2.167969 34.6875 2.285156 33.964844 2.414062 C 33.242188 2.542969 32.542969 2.683594 31.863281 2.832031 C 31.183594 2.984375 30.527344 3.148438 29.894531 3.320312 C 29.261719 3.496094 28.65625 3.679688 28.078125 3.871094 C 27.5 4.066406 26.949219 4.265625 26.433594 4.480469 C 25.914062 4.691406 25.425781 4.910156 24.972656 5.136719 C 24.515625 5.363281 24.097656 5.597656 23.710938 5.839844 C 23.324219 6.082031 22.976562 6.328125 22.664062 6.578125 C 22.351562 6.832031 22.074219 7.089844 21.835938 7.351562 C 21.601562 7.613281 21.402344 7.878906 21.242188 8.144531 C 21.082031 8.414062 20.960938 8.683594 20.882812 8.957031 C 20.800781 9.226562 20.761719 9.5 20.761719 9.773438 Z M 20.761719 9.773438 " fill-opacity="1" fill-rule="nonzero"/><g clip-path="url(#b2e213ba5c)"><path fill="#000000" d="M 45.738281 18.90625 C 58.402344 18.90625 71.503906 15.492188 71.503906 9.773438 C 71.503906 4.054688 58.402344 0.640625 45.738281 0.640625 C 33.074219 0.640625 19.976562 4.054688 19.976562 9.773438 C 19.976562 15.492188 33.074219 18.90625 45.738281 18.90625 Z M 45.738281 2.214844 C 59.996094 2.214844 69.933594 6.199219 69.933594 9.773438 C 69.933594 13.347656 59.996094 17.332031 45.738281 17.332031 C 31.484375 17.332031 21.546875 13.347656 21.546875 9.773438 C 21.546875 6.199219 31.484375 2.214844 45.738281 2.214844 Z M 45.738281 2.214844 " fill-opacity="1" fill-rule="nonzero"/></g><g clip-path="url(#a90d1d385a)"><path fill="#000000" d="M 17.1875 157.347656 C 16.703125 145.085938 20.445312 132.972656 20.183594 120.707031 C 20.042969 114.179688 18.769531 107.738281 17.917969 101.265625 C 16.84375 93.109375 16.441406 84.882812 16.105469 76.664062 C 15.398438 59.339844 15 42.007812 14.90625 24.671875 C 14.894531 22.550781 15.265625 19.878906 17.292969 19.265625 C 18.574219 18.875 19.984375 19.609375 20.792969 20.683594 C 21.601562 21.753906 21.933594 23.101562 22.242188 24.410156 C 24.6875 34.84375 26.605469 45.398438 28.089844 56.617188 C 29.988281 53.871094 31.890625 51.125 33.792969 48.378906 C 33.984375 48.097656 34.199219 47.800781 34.519531 47.6875 C 35.273438 47.421875 35.910156 48.285156 36.242188 49.011719 C 37.617188 52.03125 38.859375 55.109375 40.140625 58.242188 C 44.867188 58.046875 49.59375 57.851562 54.320312 57.65625 C 56.375 57.574219 58.480469 57.476562 60.316406 56.589844 C 63.617188 54.515625 66.449219 51.707031 68.5625 48.425781 C 69.4375 51.992188 68.066406 55.734375 66.5 59.085938 C 66.699219 63.257812 70.261719 66.320312 73.089844 69.382812 C 75.628906 72.132812 77.832031 75.492188 77.976562 79.238281 C 78.164062 84.019531 75.027344 88.214844 71.980469 92.101562 C 68.671875 115.582031 77.746094 139.015625 78.566406 162.890625 C 83.40625 172.082031 88.398438 182.132812 86.6875 192.378906 C 86.171875 195.464844 85.058594 198.433594 84.667969 201.535156 C 84.277344 204.636719 84.746094 208.078125 86.941406 210.304688 C 88.042969 211.417969 89.496094 212.144531 90.574219 213.28125 C 91.652344 214.421875 92.269531 216.289062 91.328125 217.542969 C 84.230469 217.640625 77.410156 212.359375 75.71875 205.449219 C 74.871094 201.996094 75.171875 198.238281 73.648438 195.027344 C 72.4375 192.480469 70.214844 190.578125 67.984375 188.855469 C 62.632812 184.722656 56.851562 181.148438 50.722656 178.511719 C 48.5 183.832031 46.097656 189.121094 42.804688 193.851562 C 39.507812 198.582031 35.25 202.761719 30.046875 205.222656 C 26.640625 206.835938 22.664062 207.851562 20.429688 210.890625 C 18.960938 212.886719 18.503906 215.503906 18.816406 217.964844 C 18.953125 219.046875 19.230469 220.132812 19.117188 221.21875 C 19.007812 222.304688 18.375 223.4375 17.324219 223.71875 C 15.894531 224.097656 14.597656 222.804688 13.777344 221.570312 C 12.449219 219.578125 11.417969 217.398438 10.519531 215.179688 C 9.699219 213.148438 8.972656 210.941406 9.457031 208.804688 C 9.859375 207.015625 11.0625 205.527344 12.226562 204.109375 C 13.871094 202.109375 15.515625 200.105469 17.160156 198.105469 C 18.433594 196.558594 19.738281 194.945312 20.242188 193.007812 C 20.855469 190.660156 20.207031 188.191406 19.65625 185.828125 C 18.386719 180.402344 17.617188 174.863281 17.792969 169.292969 C 12.710938 173.164062 6.644531 175.449219 0.863281 178.152344 C -4.917969 180.855469 -10.6875 184.203125 -14.304688 189.472656 C -17.234375 193.738281 -18.5 198.886719 -20.238281 203.765625 C -20.8125 205.367188 -21.625 207.136719 -23.238281 207.667969 C -24.601562 208.117188 -26.15625 207.464844 -27.085938 206.371094 C -28.019531 205.277344 -28.421875 203.824219 -28.589844 202.394531 C -29.230469 196.9375 -26.808594 191.585938 -23.855469 186.960938 C -20.351562 181.476562 -15.980469 176.503906 -10.722656 172.683594 C -5.746094 169.070312 0.273438 167.964844 5.5625 164.832031 C 9.351562 162.589844 13.078125 160.398438 17.1875 157.347656 Z M 17.1875 157.347656 " fill-opacity="1" fill-rule="nonzero"/></g><path fill="#000000" d="M 75.53125 73.84375 C 74.886719 58.515625 75.40625 43.140625 77.078125 27.894531 C 77.488281 24.132812 77.847656 19.914062 75.476562 16.96875 C 75.121094 16.53125 74.679688 16.117188 74.125 16.011719 C 72.621094 15.726562 71.785156 17.675781 71.527344 19.191406 C 69.222656 32.734375 66.914062 46.28125 64.605469 59.824219 C 64.421875 60.90625 64.242188 62.023438 64.503906 63.085938 C 64.714844 63.929688 65.191406 64.675781 65.675781 65.398438 C 67.898438 68.722656 70.410156 71.851562 73.171875 74.746094 C 73.5 75.085938 73.875 75.449219 74.34375 75.484375 C 74.816406 75.519531 75.582031 75.023438 75.53125 73.84375 Z M 75.53125 73.84375 " fill-opacity="1" fill-rule="nonzero"/><path fill="#ffffff" d="M 54.929688 73.730469 C 55.328125 71.460938 53.386719 69.21875 50.59375 68.726562 C 47.800781 68.230469 45.210938 69.667969 44.8125 71.9375 C 44.410156 74.207031 46.351562 76.449219 49.144531 76.945312 C 51.941406 77.4375 54.53125 76 54.929688 73.730469 Z M 54.929688 73.730469 " fill-opacity="1" fill-rule="nonzero"/><path fill="#ffffff" d="M 63.933594 68.308594 C 63.75 68.730469 63.667969 69.175781 63.6875 69.648438 C 63.710938 70.121094 63.835938 70.585938 64.0625 71.042969 C 64.285156 71.496094 64.597656 71.910156 64.992188 72.277344 C 65.386719 72.644531 65.839844 72.941406 66.34375 73.164062 C 66.847656 73.386719 67.371094 73.523438 67.90625 73.570312 C 68.445312 73.617188 68.957031 73.570312 69.445312 73.429688 C 69.933594 73.292969 70.359375 73.070312 70.722656 72.769531 C 71.089844 72.46875 71.363281 72.105469 71.546875 71.6875 C 71.734375 71.265625 71.816406 70.820312 71.792969 70.34375 C 71.769531 69.871094 71.648438 69.40625 71.421875 68.953125 C 71.195312 68.496094 70.886719 68.085938 70.488281 67.71875 C 70.09375 67.351562 69.644531 67.054688 69.140625 66.832031 C 68.632812 66.605469 68.113281 66.472656 67.574219 66.425781 C 67.039062 66.378906 66.527344 66.425781 66.039062 66.5625 C 65.550781 66.703125 65.125 66.921875 64.757812 67.226562 C 64.394531 67.527344 64.121094 67.886719 63.933594 68.308594 Z M 63.933594 68.308594 " fill-opacity="1" fill-rule="nonzero"/><path fill="#ffffff" d="M 59.792969 72.949219 C 60.152344 72.773438 60.566406 72.75 60.957031 72.71875 C 61.136719 72.710938 61.328125 72.699219 61.496094 72.769531 C 61.835938 72.90625 61.8125 73.316406 61.597656 73.558594 C 61.480469 73.703125 61.371094 73.867188 61.238281 74.003906 C 61.101562 74.207031 60.902344 74.347656 60.636719 74.277344 C 60.164062 74.132812 59.09375 73.503906 59.792969 72.949219 Z M 59.792969 72.949219 " fill-opacity="1" fill-rule="nonzero"/><path fill="#000000" d="M 50.921875 69.71875 C 51.167969 70.136719 51.398438 70.5625 51.578125 71.011719 C 51.835938 71.566406 51.089844 72.070312 50.667969 71.636719 C 50.40625 71.261719 50.464844 71.160156 50.367188 71.007812 C 50.25 70.683594 50.015625 70.394531 49.933594 70.0625 C 49.824219 69.5 50.65625 69.21875 50.921875 69.71875 Z M 50.921875 69.71875 " fill-opacity="1" fill-rule="nonzero"/><path fill="#000000" d="M 67.109375 67.132812 C 67.429688 67.597656 67.703125 68.09375 67.882812 68.632812 C 67.921875 68.777344 67.902344 68.9375 67.828125 69.066406 C 67.679688 69.328125 67.3125 69.421875 67.058594 69.265625 C 66.675781 68.953125 66.769531 68.695312 66.644531 68.550781 C 66.511719 68.171875 66.175781 67.875 66.082031 67.488281 C 65.96875 66.90625 66.832031 66.613281 67.109375 67.132812 Z M 67.109375 67.132812 " fill-opacity="1" fill-rule="nonzero"/><path fill="#ffffff" d="M 32.195312 57.644531 C 32.585938 56.074219 33.171875 54.558594 33.824219 53.082031 C 34.019531 52.652344 34.21875 52.226562 34.425781 51.800781 C 34.492188 51.691406 34.601562 51.605469 34.726562 51.570312 C 35.140625 51.441406 35.523438 51.9375 35.289062 52.308594 C 34.34375 54.265625 33.605469 55.980469 33.0625 58.28125 C 32.964844 58.699219 32.355469 58.777344 32.152344 58.402344 C 32.011719 58.160156 32.140625 57.894531 32.195312 57.644531 Z M 32.195312 57.644531 " fill-opacity="1" fill-rule="nonzero"/><path fill="#ffffff" d="M 65.59375 60.015625 C 66.46875 57.808594 67.023438 55.910156 66.925781 53.738281 C 66.953125 53.222656 66.761719 52.679688 66.863281 52.179688 C 67.039062 51.691406 67.824219 51.847656 67.804688 52.371094 C 68.21875 55.082031 67.554688 57.761719 66.5625 60.265625 C 66.6875 60.429688 66.953125 60.6875 67.214844 60.933594 C 68.699219 62.367188 70.226562 63.769531 71.460938 65.433594 C 72.734375 67.113281 73.675781 69.011719 74.507812 70.941406 C 74.589844 71.160156 74.738281 71.363281 74.78125 71.589844 C 74.847656 71.917969 74.492188 72.21875 74.179688 72.117188 C 73.757812 71.964844 73.6875 71.316406 73.457031 70.960938 C 72.988281 69.953125 72.539062 68.933594 71.96875 67.980469 C 70.660156 65.664062 68.964844 64.007812 66.921875 62.0625 C 66.558594 61.703125 66.164062 61.375 65.832031 60.984375 C 65.59375 60.726562 65.441406 60.359375 65.59375 60.015625 Z M 65.59375 60.015625 " fill-opacity="1" fill-rule="nonzero"/><path fill="#ffffff" d="M 29.191406 59.003906 C 29.835938 62.84375 30.871094 66.605469 31.535156 70.441406 C 32.546875 75.660156 33.324219 81.125 37.078125 84.472656 C 37.128906 84.511719 37.148438 84.527344 37.15625 84.535156 C 37.410156 84.765625 37.808594 84.851562 37.910156 85.195312 C 38.054688 85.71875 37.382812 86.070312 37 85.699219 C 33.292969 83.03125 32.035156 78.171875 31.15625 73.90625 C 30.542969 70.734375 29.992188 67.542969 29.273438 64.390625 C 28.871094 62.628906 28.453125 60.855469 28.226562 59.066406 C 28.269531 58.554688 29.070312 58.488281 29.191406 59.003906 Z M 29.191406 59.003906 " fill-opacity="1" fill-rule="nonzero"/><path fill="#000000" d="M 25.132812 28.5 C 25.230469 28.230469 25.546875 28.089844 25.820312 28.164062 C 26.019531 28.207031 26.125 28.378906 26.253906 28.515625 C 26.695312 28.921875 26.53125 28.800781 26.914062 29.066406 C 28.230469 29.9375 29.019531 30.257812 30.359375 30.710938 C 35.972656 32.585938 41.359375 32.902344 47.375 32.585938 C 52.460938 32.3125 57.671875 31.503906 62.0625 29.328125 C 63.429688 28.636719 64.515625 28.070312 65.390625 27.121094 C 65.84375 26.625 65.847656 26.574219 66.25 25.949219 C 66.316406 25.832031 66.429688 25.746094 66.558594 25.707031 C 66.984375 25.574219 67.394531 26.089844 67.148438 26.476562 C 66.320312 27.988281 64.941406 29.066406 63.433594 29.839844 C 61.878906 30.675781 60.230469 31.335938 58.558594 31.894531 C 55.078125 33.054688 51.402344 33.449219 47.761719 33.71875 C 41.800781 34.109375 35.707031 33.757812 30.011719 31.828125 C 28.542969 31.339844 27.101562 30.703125 25.871094 29.742188 C 25.527344 29.429688 24.914062 29.035156 25.132812 28.5 Z M 25.132812 28.5 " fill-opacity="1" fill-rule="nonzero"/><path fill="#000000" d="M 54.859375 19.148438 C 55.140625 19.003906 55.484375 19.113281 55.789062 19.101562 C 56.921875 19.15625 58.054688 19.289062 59.175781 19.457031 C 60.320312 19.621094 61.429688 19.960938 62.5 20.394531 C 63.683594 20.84375 64.808594 21.472656 65.699219 22.382812 C 66.367188 23.011719 66.871094 23.8125 67.074219 24.714844 C 67.25 25.367188 66.261719 25.640625 66.078125 24.988281 C 65.652344 22.972656 62.976562 21.46875 60.21875 20.769531 C 58.488281 20.363281 57.230469 20.269531 55.3125 20.148438 C 55.050781 20.15625 54.734375 20.097656 54.640625 19.8125 C 54.527344 19.578125 54.636719 19.277344 54.859375 19.148438 Z M 54.859375 19.148438 " fill-opacity="1" fill-rule="nonzero"/><path fill="#000000" d="M 23.753906 25.144531 C 23.9375 24.53125 24.316406 24.007812 24.730469 23.53125 C 26.1875 21.871094 28.203125 20.824219 30.292969 20.1875 C 32.941406 19.324219 35.714844 18.945312 38.492188 18.847656 C 38.867188 18.871094 39.328125 18.695312 39.636719 18.96875 C 39.945312 19.257812 39.714844 19.824219 39.289062 19.8125 C 36.324219 19.929688 34.042969 20.1875 31.175781 21.058594 C 28.550781 21.761719 25.671875 23.480469 24.855469 25.371094 C 24.664062 25.796875 24.816406 26.3125 24.796875 26.648438 C 24.753906 27.222656 23.863281 27.28125 23.734375 26.71875 C 23.644531 26.199219 23.597656 25.65625 23.753906 25.144531 Z M 23.753906 25.144531 " fill-opacity="1" fill-rule="nonzero"/><path fill="#000000" d="M 60.929688 46.042969 C 61.101562 43.210938 61.351562 40.390625 61.609375 37.566406 C 61.742188 36.289062 61.90625 35.011719 62.007812 33.730469 C 62.03125 33.515625 62.066406 33.292969 62.175781 33.105469 C 62.4375 32.699219 62.921875 32.53125 63.328125 32.308594 C 63.808594 32.105469 64.175781 31.800781 64.507812 31.847656 C 64.675781 31.890625 64.773438 32.058594 64.757812 32.222656 C 64.816406 32.273438 64.855469 32.339844 64.851562 32.433594 C 64.496094 36.839844 64.210938 41.253906 63.890625 45.667969 C 63.800781 46.359375 63.914062 46.621094 63.429688 47.074219 C 62.914062 47.460938 62.285156 47.707031 61.664062 47.875 C 60.664062 48.046875 60.945312 46.648438 60.929688 46.042969 Z M 63.101562 46.410156 C 63.273438 45.753906 63.28125 44.777344 63.382812 43.667969 C 63.566406 41.148438 63.753906 38.628906 63.949219 36.109375 C 64.046875 34.949219 64.113281 33.777344 64.242188 32.621094 C 64.207031 32.640625 64.164062 32.660156 64.113281 32.691406 C 63.679688 32.90625 62.933594 33.265625 62.800781 33.417969 C 62.792969 33.433594 62.789062 33.433594 62.785156 33.441406 C 62.675781 33.566406 62.621094 34.742188 62.507812 35.613281 C 62.214844 38.164062 62.023438 40.722656 61.816406 43.28125 C 61.71875 44.359375 61.566406 46.648438 61.617188 47.171875 C 62.300781 46.984375 63.109375 46.542969 63.101562 46.410156 Z M 63.101562 46.410156 " fill-opacity="1" fill-rule="nonzero"/></g></g></g><g transform="matrix(1, 0, 0, 1, 138, 140)"><g clip-path="url(#0c95a9754b)"><g fill="#000000" fill-opacity="1"><g transform="translate(0.550337, 75.333972)"><g><path d="M 15.609375 -15.09375 L 15.609375 -6.921875 C 15.609375 -4.660156 15.007812 -2.941406 13.8125 -1.765625 C 12.613281 -0.585938 11.035156 0 9.078125 0 L 9.015625 0 C 6.878906 0 5.191406 -0.585938 3.953125 -1.765625 C 2.710938 -2.941406 2.09375 -4.660156 2.09375 -6.921875 L 2.09375 -16.140625 C 2.09375 -20.753906 2.785156 -24.257812 4.171875 -26.65625 C 5.566406 -29.050781 7.332031 -30.773438 9.46875 -31.828125 L 9.140625 -33.0625 L 8.03125 -33.0625 C 6.03125 -33.0625 4.453125 -33.703125 3.296875 -34.984375 C 2.140625 -36.273438 1.539062 -38.03125 1.5 -40.25 C 1.457031 -42.425781 2.035156 -44.191406 3.234375 -45.546875 C 4.429688 -46.898438 6.03125 -47.578125 8.03125 -47.578125 L 25.21875 -47.578125 C 29.625 -47.578125 33.207031 -46.253906 35.96875 -43.609375 C 38.738281 -40.972656 40.125 -36.828125 40.125 -31.171875 C 40.125 -27.078125 39.40625 -23.851562 37.96875 -21.5 C 36.53125 -19.144531 34.632812 -17.488281 32.28125 -16.53125 C 29.925781 -15.570312 27.378906 -15.09375 24.640625 -15.09375 Z M 14.765625 -27.703125 C 14.765625 -26.742188 14.945312 -26.113281 15.3125 -25.8125 C 15.6875 -25.507812 16.351562 -25.359375 17.3125 -25.359375 L 23.390625 -25.359375 C 25.222656 -25.359375 26.550781 -25.78125 27.375 -26.625 C 28.207031 -27.476562 28.625 -28.6875 28.625 -30.25 C 28.625 -31.820312 28.207031 -33.019531 27.375 -33.84375 C 26.550781 -34.675781 25.222656 -35.09375 23.390625 -35.09375 L 17.3125 -35.09375 C 16.351562 -35.09375 15.6875 -34.960938 15.3125 -34.703125 C 14.945312 -34.441406 14.765625 -33.804688 14.765625 -32.796875 Z M 14.765625 -27.703125 "/></g></g></g><g fill="#000000" fill-opacity="1"><g transform="translate(39.822235, 75.333972)"><g><path d="M 23.203125 0.203125 C 18.535156 0.203125 14.585938 -0.820312 11.359375 -2.875 C 8.140625 -4.925781 5.703125 -7.757812 4.046875 -11.375 C 2.390625 -14.988281 1.5625 -19.144531 1.5625 -23.84375 C 1.5625 -28.507812 2.390625 -32.660156 4.046875 -36.296875 C 5.703125 -39.929688 8.140625 -42.785156 11.359375 -44.859375 C 14.585938 -46.929688 18.535156 -47.96875 23.203125 -47.96875 C 27.859375 -47.96875 31.785156 -46.929688 34.984375 -44.859375 C 38.191406 -42.785156 40.625 -39.929688 42.28125 -36.296875 C 43.9375 -32.660156 44.765625 -28.507812 44.765625 -23.84375 C 44.765625 -19.144531 43.9375 -14.988281 42.28125 -11.375 C 40.625 -7.757812 38.191406 -4.925781 34.984375 -2.875 C 31.785156 -0.820312 27.859375 0.203125 23.203125 0.203125 Z M 9.796875 -24.890625 C 9.796875 -23.546875 10.125 -22.273438 10.78125 -21.078125 C 11.4375 -19.878906 12.722656 -18.921875 14.640625 -18.203125 C 16.554688 -17.484375 19.410156 -17.125 23.203125 -17.125 C 26.984375 -17.125 29.820312 -17.484375 31.71875 -18.203125 C 33.613281 -18.921875 34.890625 -19.878906 35.546875 -21.078125 C 36.203125 -22.273438 36.53125 -23.546875 36.53125 -24.890625 C 36.53125 -26.285156 36.203125 -27.535156 35.546875 -28.640625 C 34.890625 -29.753906 33.613281 -30.648438 31.71875 -31.328125 C 29.820312 -32.003906 26.984375 -32.34375 23.203125 -32.34375 C 19.410156 -32.34375 16.554688 -32.003906 14.640625 -31.328125 C 12.722656 -30.648438 11.4375 -29.753906 10.78125 -28.640625 C 10.125 -27.535156 9.796875 -26.285156 9.796875 -24.890625 Z M 9.796875 -24.890625 "/></g></g></g><g fill="#000000" fill-opacity="1"><g transform="translate(82.165232, 75.333972)"><g><path d="M 22.21875 0.203125 C 19.78125 0.203125 17.328125 -0.046875 14.859375 -0.546875 C 12.398438 -1.054688 10.132812 -1.800781 8.0625 -2.78125 C 6 -3.757812 4.332031 -4.957031 3.0625 -6.375 C 1.800781 -7.789062 1.171875 -9.429688 1.171875 -11.296875 C 1.171875 -13.691406 1.929688 -15.609375 3.453125 -17.046875 C 4.984375 -18.492188 6.773438 -19.171875 8.828125 -19.078125 C 10.429688 -19.035156 12.039062 -18.695312 13.65625 -18.0625 C 15.269531 -17.4375 16.914062 -16.816406 18.59375 -16.203125 C 20.269531 -15.597656 21.957031 -15.296875 23.65625 -15.296875 C 25.351562 -15.296875 26.523438 -15.507812 27.171875 -15.9375 C 27.828125 -16.375 28.15625 -16.960938 28.15625 -17.703125 C 28.15625 -18.578125 27.695312 -19.296875 26.78125 -19.859375 C 25.875 -20.429688 24.722656 -20.867188 23.328125 -21.171875 L 20.125 -21.953125 C 16.8125 -22.734375 13.847656 -23.613281 11.234375 -24.59375 C 8.617188 -25.582031 6.5625 -26.890625 5.0625 -28.515625 C 3.5625 -30.148438 2.8125 -32.34375 2.8125 -35.09375 C 2.8125 -38.09375 3.640625 -40.539062 5.296875 -42.4375 C 6.953125 -44.332031 9.191406 -45.710938 12.015625 -46.578125 C 14.847656 -47.453125 18.007812 -47.890625 21.5 -47.890625 C 25.070312 -47.890625 28.207031 -47.519531 30.90625 -46.78125 C 33.601562 -46.039062 35.703125 -44.972656 37.203125 -43.578125 C 38.710938 -42.191406 39.46875 -40.492188 39.46875 -38.484375 C 39.46875 -36.347656 38.890625 -34.679688 37.734375 -33.484375 C 36.578125 -32.285156 35.039062 -31.6875 33.125 -31.6875 C 31.863281 -31.6875 30.546875 -31.90625 29.171875 -32.34375 C 27.804688 -32.78125 26.367188 -33.203125 24.859375 -33.609375 C 23.359375 -34.023438 21.757812 -34.234375 20.0625 -34.234375 C 18.539062 -34.234375 17.382812 -34.003906 16.59375 -33.546875 C 15.8125 -33.097656 15.421875 -32.5 15.421875 -31.75 C 15.421875 -30.84375 15.941406 -30.171875 16.984375 -29.734375 C 18.035156 -29.296875 19.757812 -28.769531 22.15625 -28.15625 L 25.8125 -27.3125 C 28.8125 -26.570312 31.441406 -25.675781 33.703125 -24.625 C 35.972656 -23.582031 37.738281 -22.210938 39 -20.515625 C 40.269531 -18.816406 40.90625 -16.597656 40.90625 -13.859375 C 40.90625 -10.546875 40.117188 -7.851562 38.546875 -5.78125 C 36.984375 -3.707031 34.804688 -2.191406 32.015625 -1.234375 C 29.234375 -0.273438 25.96875 0.203125 22.21875 0.203125 Z M 22.21875 0.203125 "/></g></g></g><g fill="#000000" fill-opacity="1"><g transform="translate(121.763817, 75.333972)"><g><path d="M 18.03125 -0.125 C 15.894531 -0.125 13.859375 -0.320312 11.921875 -0.71875 C 9.984375 -1.113281 8.285156 -1.863281 6.828125 -2.96875 C 5.367188 -4.082031 4.210938 -5.695312 3.359375 -7.8125 C 2.515625 -9.925781 2.09375 -12.703125 2.09375 -16.140625 C 2.09375 -19.234375 2.503906 -21.890625 3.328125 -24.109375 C 4.160156 -26.328125 5.148438 -28.085938 6.296875 -29.390625 C 7.453125 -30.703125 8.507812 -31.515625 9.46875 -31.828125 L 9.140625 -33.0625 L 8.03125 -33.0625 C 6.03125 -33.0625 4.453125 -33.703125 3.296875 -34.984375 C 2.140625 -36.273438 1.539062 -38.03125 1.5 -40.25 C 1.457031 -42.425781 2.035156 -44.164062 3.234375 -45.46875 C 4.429688 -46.78125 6.03125 -47.4375 8.03125 -47.4375 L 31.5 -47.4375 C 36.15625 -47.4375 38.484375 -45.257812 38.484375 -40.90625 C 38.484375 -38.945312 37.914062 -37.378906 36.78125 -36.203125 C 35.65625 -35.023438 33.894531 -34.4375 31.5 -34.4375 L 17.96875 -34.4375 C 16.351562 -34.4375 15.546875 -33.5 15.546875 -31.625 L 15.546875 -26.71875 C 17.722656 -27.195312 20 -27.765625 22.375 -28.421875 C 24.75 -29.078125 27.003906 -29.40625 29.140625 -29.40625 C 31.191406 -29.40625 32.726562 -28.957031 33.75 -28.0625 C 34.769531 -27.164062 35.28125 -25.957031 35.28125 -24.4375 C 35.28125 -22.875 34.769531 -21.644531 33.75 -20.75 C 32.726562 -19.851562 31.191406 -19.382812 29.140625 -19.34375 C 27.003906 -19.300781 24.738281 -19.601562 22.34375 -20.25 C 19.945312 -20.90625 17.660156 -21.472656 15.484375 -21.953125 L 15.484375 -13.390625 C 15.484375 -12.566406 15.710938 -11.988281 16.171875 -11.65625 C 16.628906 -11.332031 17.359375 -11.453125 18.359375 -12.015625 C 20.535156 -13.285156 22.671875 -14.300781 24.765625 -15.0625 C 26.859375 -15.820312 28.90625 -16.203125 30.90625 -16.203125 C 33.738281 -16.203125 35.882812 -15.460938 37.34375 -13.984375 C 38.800781 -12.503906 39.53125 -10.566406 39.53125 -8.171875 C 39.53125 -5.597656 38.753906 -3.613281 37.203125 -2.21875 C 35.660156 -0.820312 33.171875 -0.125 29.734375 -0.125 Z M 18.03125 -0.125 "/></g></g></g></g></g><g transform="matrix(1, 0, 0, 1, 206, 226)"><g clip-path="url(#7d401d810a)"><g fill="#000000" fill-opacity="1"><g transform="translate(1.177486, 7.702705)"><g><path d="M 2.90625 -5.226562 L 4.410156 -5.226562 L 4.410156 -3.140625 L 2.90625 -3.140625 Z M 4.1875 -0.992188 L 4.1875 -2.300781 L 6.429688 -2.300781 L 6.429688 -3.140625 L 5.457031 -3.140625 L 5.457031 -5.226562 L 6.457031 -5.226562 L 6.457031 -6.0625 L 0.863281 -6.0625 L 0.863281 -5.226562 L 1.863281 -5.226562 L 1.863281 -3.140625 L 0.902344 -3.140625 L 0.902344 -2.300781 L 3.132812 -2.300781 L 3.132812 -0.992188 L 0.34375 -0.992188 L 0.34375 -0.144531 L 7.007812 -0.144531 L 7.007812 -0.992188 Z M 4.1875 -0.992188 "/></g></g></g><g fill="#000000" fill-opacity="1"><g transform="translate(9.334807, 7.702705)"><g/></g></g><g fill="#000000" fill-opacity="1"><g transform="translate(12.13131, 7.702705)"><g><path d="M 1.015625 -2.109375 C 2.292969 -2.339844 3.210938 -2.988281 3.675781 -3.859375 C 4.136719 -3.003906 5.074219 -2.371094 6.367188 -2.148438 L 6.765625 -2.980469 C 5.105469 -3.226562 4.234375 -4.203125 4.226562 -5.21875 L 6.441406 -5.21875 L 6.441406 -6.046875 L 0.894531 -6.046875 L 0.894531 -5.21875 L 3.109375 -5.21875 C 3.101562 -4.203125 2.230469 -3.203125 0.605469 -2.949219 Z M 0.34375 -1.046875 L 0.34375 -0.191406 L 7.007812 -0.191406 L 7.007812 -1.046875 Z M 0.34375 -1.046875 "/></g></g></g><g fill="#000000" fill-opacity="1"><g transform="translate(20.288632, 7.702705)"><g/></g></g><g fill="#000000" fill-opacity="1"><g transform="translate(23.085135, 7.702705)"><g><path d="M 6.457031 -6.671875 L 5.394531 -6.671875 L 5.394531 -1.773438 L 6.457031 -1.773438 Z M 1.476562 -4.417969 C 1.476562 -4.992188 1.894531 -5.335938 2.445312 -5.335938 C 3.003906 -5.335938 3.417969 -4.992188 3.417969 -4.417969 C 3.417969 -3.851562 3.003906 -3.507812 2.445312 -3.507812 C 1.894531 -3.507812 1.476562 -3.851562 1.476562 -4.417969 Z M 4.449219 -4.417969 C 4.449219 -5.472656 3.585938 -6.230469 2.445312 -6.230469 C 1.316406 -6.230469 0.449219 -5.472656 0.449219 -4.417969 C 0.449219 -3.363281 1.316406 -2.613281 2.445312 -2.613281 C 3.585938 -2.613281 4.449219 -3.363281 4.449219 -4.417969 Z M 4.507812 -2.140625 L 3.417969 -2.140625 L 3.417969 -1.996094 C 3.417969 -1.183594 2.675781 -0.375 1.101562 -0.152344 L 1.503906 0.664062 C 2.691406 0.472656 3.53125 -0.0390625 3.960938 -0.742188 C 4.394531 -0.0390625 5.234375 0.472656 6.414062 0.664062 L 6.816406 -0.152344 C 5.25 -0.375 4.507812 -1.191406 4.507812 -1.996094 Z M 4.507812 -2.140625 "/></g></g></g></g></g><g clip-path="url(#858e0cdf91)"><g clip-path="url(#afa9f69b73)"><path stroke-linecap="butt" transform="matrix(0.75, 0, 0, 0.75, 305.089115, 203.021749)" fill="none" stroke-linejoin="miter" d="M 8.381181 0.00225124 C 3.750972 0.00225124 0.000971846 3.752251 0.000971846 8.38246 C 0.000971846 13.012669 3.750972 16.767877 8.381181 16.767877 C 13.011389 16.767877 16.766598 13.012669 16.766598 8.38246 C 16.766598 3.752251 13.011389 0.00225124 8.381181 0.00225124 Z M 8.381181 0.00225124 " stroke="#000000" stroke-width="4" stroke-opacity="1" stroke-miterlimit="4"/></g></g><g transform="matrix(1, 0, 0, 1, 308, 205)"><g clip-path="url(#c1506df491)"><g fill="#000000" fill-opacity="1"><g transform="translate(0.785894, 5.685468)"><g><path d="M 0.859375 0.046875 C 0.691406 0.046875 0.5625 0.00390625 0.46875 -0.078125 C 0.382812 -0.171875 0.34375 -0.300781 0.34375 -0.46875 L 0.34375 -3.40625 C 0.34375 -3.570312 0.382812 -3.695312 0.46875 -3.78125 C 0.5625 -3.875 0.691406 -3.921875 0.859375 -3.921875 C 1.015625 -3.921875 1.132812 -3.875 1.21875 -3.78125 C 1.3125 -3.695312 1.359375 -3.570312 1.359375 -3.40625 L 1.359375 -0.46875 C 1.359375 -0.300781 1.316406 -0.171875 1.234375 -0.078125 C 1.148438 0.00390625 1.023438 0.046875 0.859375 0.046875 Z M 0.859375 0.046875 "/></g></g></g><g fill="#000000" fill-opacity="1"><g transform="translate(2.441798, 5.685468)"><g><path d="M 1.765625 0.046875 C 1.609375 0.046875 1.484375 0.00390625 1.390625 -0.078125 C 1.304688 -0.171875 1.265625 -0.296875 1.265625 -0.453125 L 1.265625 -3.046875 L 0.40625 -3.046875 C 0.125 -3.046875 -0.015625 -3.179688 -0.015625 -3.453125 C -0.015625 -3.722656 0.125 -3.859375 0.40625 -3.859375 L 3.125 -3.859375 C 3.40625 -3.859375 3.546875 -3.722656 3.546875 -3.453125 C 3.546875 -3.179688 3.40625 -3.046875 3.125 -3.046875 L 2.265625 -3.046875 L 2.265625 -0.453125 C 2.265625 -0.296875 2.222656 -0.171875 2.140625 -0.078125 C 2.054688 0.00390625 1.929688 0.046875 1.765625 0.046875 Z M 1.765625 0.046875 "/></g></g></g></g></g></svg>