<svg xmlns="http://www.w3.org/2000/svg" xmlns:xlink="http://www.w3.org/1999/xlink" width="500" zoomAndPan="magnify" viewBox="0 0 375 374.999991" height="500" preserveAspectRatio="xMidYMid meet" version="1.0"><defs><g/><clipPath id="c0a9fd154a"><path d="M 97.402344 124.441406 L 189.652344 124.441406 L 189.652344 236.191406 L 97.402344 236.191406 Z M 97.402344 124.441406 " clip-rule="nonzero"/></clipPath><clipPath id="ada7948630"><path d="M 20 0.441406 L 72 0.441406 L 72 19 L 20 19 Z M 20 0.441406 " clip-rule="nonzero"/></clipPath><clipPath id="261aa5d448"><path d="M 0.402344 18 L 92 18 L 92 112.191406 L 0.402344 112.191406 Z M 0.402344 18 " clip-rule="nonzero"/></clipPath><clipPath id="b0473a3fc8"><rect x="0" width="93" y="0" height="113"/></clipPath><clipPath id="cad6f46694"><rect x="0" width="86" y="0" height="145"/></clipPath><clipPath id="c9278e0120"><rect x="0" width="32" y="0" height="10"/></clipPath><clipPath id="9897197e93"><path d="M 265.011719 223.617188 L 277.585938 223.617188 L 277.585938 236.191406 L 265.011719 236.191406 Z M 265.011719 223.617188 " clip-rule="nonzero"/></clipPath><clipPath id="8c201e5ca1"><path d="M 271.296875 223.617188 C 267.828125 223.617188 265.011719 226.433594 265.011719 229.90625 C 265.011719 233.378906 267.828125 236.191406 271.296875 236.191406 C 274.769531 236.191406 277.585938 233.378906 277.585938 229.90625 C 277.585938 226.433594 274.769531 223.617188 271.296875 223.617188 Z M 271.296875 223.617188 " clip-rule="nonzero"/></clipPath><clipPath id="962262bdb4"><rect x="0" width="7" y="0" height="8"/></clipPath></defs><g clip-path="url(#c0a9fd154a)"><g transform="matrix(1, 0, 0, 1, 97, 124)"><g clip-path="url(#b0473a3fc8)"><path fill="#ffffff" d="M 70.875 9.691406 C 69.46875 24.898438 68.058594 37.617188 66.582031 53.199219 C 66.457031 54.554688 65.789062 55.820312 64.703125 56.632812 C 63.03125 57.882812 60.988281 58.671875 58.96875 59.28125 C 50.070312 61.964844 40.378906 61.9375 31.121094 59.222656 C 29.386719 58.714844 28.089844 57.257812 27.769531 55.476562 C 24.980469 39.84375 22.769531 25.199219 20.796875 9.441406 Z M 70.875 9.691406 " fill-opacity="1" fill-rule="nonzero"/><path fill="#000000" d="M 45.292969 62.070312 C 50.019531 62.070312 54.695312 61.390625 59.195312 60.035156 C 60.828125 59.542969 63.222656 58.71875 65.171875 57.265625 C 66.414062 56.335938 67.214844 54.882812 67.367188 53.273438 C 68.058594 45.949219 68.746094 39.183594 69.410156 32.640625 C 70.179688 25.019531 70.910156 17.824219 71.65625 9.765625 L 70.09375 9.617188 C 69.347656 17.671875 68.617188 24.863281 67.847656 32.480469 C 67.183594 39.027344 66.496094 45.796875 65.800781 53.125 C 65.691406 54.289062 65.121094 55.339844 64.230469 56.003906 C 62.484375 57.308594 60.261719 58.070312 58.742188 58.527344 C 49.972656 61.171875 40.496094 61.152344 31.34375 58.46875 C 29.90625 58.046875 28.808594 56.816406 28.542969 55.335938 C 25.789062 39.90625 23.574219 25.292969 21.574219 9.34375 L 20.015625 9.539062 C 22.019531 25.515625 24.238281 40.15625 27 55.613281 C 27.367188 57.679688 28.898438 59.390625 30.902344 59.976562 C 35.65625 61.371094 40.5 62.070312 45.292969 62.070312 Z M 45.292969 62.070312 " fill-opacity="1" fill-rule="nonzero"/><path fill="#ffffff" d="M 20.839844 9.597656 C 20.839844 9.871094 20.878906 10.144531 20.960938 10.414062 C 21.039062 10.6875 21.160156 10.957031 21.320312 11.226562 C 21.480469 11.492188 21.679688 11.757812 21.914062 12.019531 C 22.152344 12.28125 22.429688 12.539062 22.742188 12.789062 C 23.054688 13.042969 23.402344 13.289062 23.789062 13.53125 C 24.175781 13.773438 24.59375 14.007812 25.050781 14.234375 C 25.503906 14.460938 25.992188 14.679688 26.507812 14.890625 C 27.027344 15.101562 27.578125 15.304688 28.15625 15.5 C 28.734375 15.691406 29.339844 15.875 29.972656 16.050781 C 30.605469 16.222656 31.261719 16.386719 31.941406 16.535156 C 32.621094 16.6875 33.320312 16.828125 34.042969 16.957031 C 34.765625 17.085938 35.503906 17.203125 36.257812 17.308594 C 37.015625 17.414062 37.785156 17.503906 38.566406 17.585938 C 39.351562 17.664062 40.140625 17.730469 40.945312 17.785156 C 41.746094 17.835938 42.554688 17.875 43.371094 17.902344 C 44.183594 17.929688 45 17.945312 45.816406 17.945312 C 46.636719 17.945312 47.453125 17.929688 48.265625 17.902344 C 49.082031 17.875 49.886719 17.835938 50.691406 17.785156 C 51.492188 17.730469 52.285156 17.664062 53.070312 17.585938 C 53.851562 17.503906 54.621094 17.414062 55.375 17.308594 C 56.132812 17.203125 56.871094 17.085938 57.59375 16.957031 C 58.3125 16.828125 59.015625 16.6875 59.695312 16.535156 C 60.375 16.386719 61.03125 16.222656 61.664062 16.050781 C 62.296875 15.875 62.902344 15.691406 63.480469 15.5 C 64.058594 15.304688 64.605469 15.101562 65.125 14.890625 C 65.644531 14.679688 66.132812 14.460938 66.585938 14.234375 C 67.039062 14.007812 67.460938 13.773438 67.847656 13.53125 C 68.230469 13.289062 68.582031 13.042969 68.894531 12.789062 C 69.207031 12.539062 69.484375 12.28125 69.71875 12.019531 C 69.957031 11.757812 70.15625 11.492188 70.316406 11.226562 C 70.476562 10.957031 70.59375 10.6875 70.675781 10.414062 C 70.753906 10.144531 70.796875 9.871094 70.796875 9.597656 C 70.796875 9.324219 70.753906 9.050781 70.675781 8.777344 C 70.59375 8.507812 70.476562 8.238281 70.316406 7.96875 C 70.15625 7.699219 69.957031 7.433594 69.71875 7.175781 C 69.484375 6.914062 69.207031 6.65625 68.894531 6.402344 C 68.582031 6.148438 68.230469 5.902344 67.847656 5.664062 C 67.460938 5.421875 67.039062 5.1875 66.585938 4.960938 C 66.132812 4.730469 65.644531 4.511719 65.125 4.300781 C 64.605469 4.089844 64.058594 3.886719 63.480469 3.695312 C 62.902344 3.5 62.296875 3.316406 61.664062 3.144531 C 61.03125 2.972656 60.375 2.808594 59.695312 2.65625 C 59.015625 2.503906 58.3125 2.363281 57.59375 2.234375 C 56.871094 2.105469 56.132812 1.988281 55.375 1.886719 C 54.621094 1.78125 53.851562 1.6875 53.070312 1.609375 C 52.285156 1.53125 51.492188 1.464844 50.691406 1.410156 C 49.886719 1.355469 49.082031 1.316406 48.265625 1.289062 C 47.453125 1.261719 46.636719 1.25 45.816406 1.25 C 45 1.25 44.183594 1.261719 43.371094 1.289062 C 42.554688 1.316406 41.746094 1.355469 40.945312 1.410156 C 40.140625 1.464844 39.351562 1.53125 38.566406 1.609375 C 37.785156 1.6875 37.015625 1.78125 36.257812 1.886719 C 35.503906 1.988281 34.765625 2.105469 34.042969 2.234375 C 33.320312 2.363281 32.621094 2.503906 31.941406 2.65625 C 31.261719 2.808594 30.605469 2.972656 29.972656 3.144531 C 29.339844 3.316406 28.734375 3.5 28.15625 3.695312 C 27.578125 3.886719 27.027344 4.089844 26.507812 4.300781 C 25.992188 4.511719 25.503906 4.730469 25.050781 4.960938 C 24.59375 5.1875 24.175781 5.421875 23.789062 5.664062 C 23.402344 5.902344 23.054688 6.148438 22.742188 6.402344 C 22.429688 6.65625 22.152344 6.914062 21.914062 7.175781 C 21.679688 7.433594 21.480469 7.699219 21.320312 7.96875 C 21.160156 8.238281 21.039062 8.507812 20.960938 8.777344 C 20.878906 9.050781 20.839844 9.324219 20.839844 9.597656 Z M 20.839844 9.597656 " fill-opacity="1" fill-rule="nonzero"/><g clip-path="url(#ada7948630)"><path fill="#000000" d="M 45.816406 18.730469 C 58.480469 18.730469 71.582031 15.3125 71.582031 9.597656 C 71.582031 3.878906 58.480469 0.460938 45.816406 0.460938 C 33.152344 0.460938 20.054688 3.878906 20.054688 9.597656 C 20.054688 15.3125 33.152344 18.730469 45.816406 18.730469 Z M 45.816406 2.035156 C 60.074219 2.035156 70.011719 6.019531 70.011719 9.597656 C 70.011719 13.171875 60.074219 17.15625 45.816406 17.15625 C 31.5625 17.15625 21.625 13.171875 21.625 9.597656 C 21.625 6.019531 31.558594 2.035156 45.816406 2.035156 Z M 45.816406 2.035156 " fill-opacity="1" fill-rule="nonzero"/></g><g clip-path="url(#261aa5d448)"><path fill="#000000" d="M 17.265625 157.171875 C 16.78125 144.910156 20.523438 132.796875 20.261719 120.53125 C 20.121094 114.003906 18.847656 107.5625 17.996094 101.089844 C 16.921875 92.933594 16.519531 84.707031 16.183594 76.484375 C 15.476562 59.164062 15.078125 41.828125 14.984375 24.492188 C 14.972656 22.371094 15.34375 19.703125 17.371094 19.085938 C 18.652344 18.695312 20.0625 19.433594 20.871094 20.503906 C 21.675781 21.578125 22.011719 22.925781 22.316406 24.234375 C 24.765625 34.667969 26.683594 45.222656 28.167969 56.441406 C 30.066406 53.695312 31.96875 50.949219 33.867188 48.199219 C 34.0625 47.917969 34.277344 47.625 34.597656 47.511719 C 35.351562 47.242188 35.988281 48.105469 36.320312 48.835938 C 37.695312 51.851562 38.9375 54.929688 40.21875 58.066406 C 44.945312 57.871094 49.671875 57.675781 54.398438 57.480469 C 56.453125 57.394531 58.554688 57.300781 60.394531 56.410156 C 63.691406 54.335938 66.527344 51.527344 68.640625 48.25 C 69.515625 51.8125 68.144531 55.554688 66.578125 58.910156 C 66.777344 63.078125 70.339844 66.140625 73.164062 69.207031 C 75.703125 71.957031 77.910156 75.316406 78.054688 79.0625 C 78.242188 83.84375 75.105469 88.039062 72.054688 91.925781 C 68.75 115.402344 77.824219 138.839844 78.644531 162.714844 C 83.484375 171.90625 88.476562 181.953125 86.765625 192.203125 C 86.25 195.289062 85.136719 198.253906 84.746094 201.359375 C 84.355469 204.460938 84.824219 207.902344 87.019531 210.125 C 88.121094 211.242188 89.570312 211.964844 90.648438 213.105469 C 91.726562 214.246094 92.347656 216.113281 91.40625 217.367188 C 84.308594 217.464844 77.488281 212.183594 75.796875 205.273438 C 74.949219 201.820312 75.25 198.0625 73.726562 194.851562 C 72.515625 192.300781 70.292969 190.398438 68.0625 188.675781 C 62.710938 184.542969 56.929688 180.972656 50.800781 178.335938 C 48.578125 183.65625 46.175781 188.945312 42.882812 193.675781 C 39.585938 198.40625 35.328125 202.585938 30.125 205.046875 C 26.71875 206.65625 22.742188 207.675781 20.507812 210.714844 C 19.039062 212.707031 18.582031 215.328125 18.894531 217.785156 C 19.03125 218.871094 19.308594 219.953125 19.195312 221.039062 C 19.082031 222.128906 18.453125 223.261719 17.402344 223.539062 C 15.972656 223.917969 14.675781 222.625 13.855469 221.394531 C 12.527344 219.398438 11.496094 217.222656 10.597656 215 C 9.777344 212.972656 9.050781 210.761719 9.535156 208.628906 C 9.9375 206.839844 11.136719 205.351562 12.304688 203.933594 C 13.949219 201.929688 15.59375 199.929688 17.238281 197.929688 C 18.511719 196.382812 19.816406 194.769531 20.320312 192.832031 C 20.933594 190.484375 20.285156 188.015625 19.730469 185.648438 C 18.464844 180.226562 17.691406 174.683594 17.867188 169.113281 C 12.789062 172.984375 6.722656 175.269531 0.941406 177.976562 C -4.84375 180.679688 -10.609375 184.023438 -14.226562 189.292969 C -17.15625 193.558594 -18.421875 198.710938 -20.160156 203.585938 C -20.734375 205.191406 -21.546875 206.960938 -23.160156 207.492188 C -24.527344 207.941406 -26.078125 207.289062 -27.007812 206.195312 C -27.941406 205.101562 -28.34375 203.644531 -28.511719 202.214844 C -29.15625 196.761719 -26.730469 191.410156 -23.777344 186.785156 C -20.273438 181.300781 -15.902344 176.328125 -10.644531 172.507812 C -5.667969 168.890625 0.351562 167.789062 5.640625 164.65625 C 9.429688 162.414062 13.15625 160.21875 17.265625 157.171875 Z M 17.265625 157.171875 " fill-opacity="1" fill-rule="nonzero"/></g><path fill="#000000" d="M 75.609375 73.667969 C 74.964844 58.339844 75.480469 42.964844 77.152344 27.714844 C 77.566406 23.953125 77.925781 19.738281 75.550781 16.792969 C 75.199219 16.355469 74.753906 15.9375 74.203125 15.835938 C 72.699219 15.550781 71.863281 17.5 71.605469 19.011719 C 69.296875 32.558594 66.992188 46.101562 64.683594 59.648438 C 64.5 60.726562 64.316406 61.84375 64.582031 62.910156 C 64.792969 63.75 65.269531 64.5 65.75 65.21875 C 67.976562 68.542969 70.488281 71.675781 73.25 74.566406 C 73.578125 74.910156 73.949219 75.273438 74.421875 75.308594 C 74.894531 75.34375 75.65625 74.847656 75.609375 73.667969 Z M 75.609375 73.667969 " fill-opacity="1" fill-rule="nonzero"/><path fill="#ffffff" d="M 55.007812 73.554688 C 55.40625 71.285156 53.464844 69.042969 50.671875 68.546875 C 47.878906 68.054688 45.289062 69.492188 44.890625 71.761719 C 44.488281 74.03125 46.429688 76.273438 49.222656 76.765625 C 52.019531 77.261719 54.605469 75.824219 55.007812 73.554688 Z M 55.007812 73.554688 " fill-opacity="1" fill-rule="nonzero"/><path fill="#ffffff" d="M 64.011719 68.132812 C 63.828125 68.550781 63.746094 69 63.765625 69.472656 C 63.789062 69.945312 63.914062 70.410156 64.136719 70.867188 C 64.363281 71.320312 64.675781 71.730469 65.070312 72.101562 C 65.464844 72.46875 65.917969 72.761719 66.421875 72.988281 C 66.925781 73.210938 67.445312 73.347656 67.984375 73.390625 C 68.523438 73.4375 69.035156 73.390625 69.523438 73.253906 C 70.011719 73.113281 70.4375 72.894531 70.800781 72.59375 C 71.164062 72.289062 71.441406 71.929688 71.625 71.507812 C 71.8125 71.089844 71.894531 70.640625 71.871094 70.167969 C 71.847656 69.695312 71.726562 69.230469 71.5 68.773438 C 71.273438 68.320312 70.960938 67.90625 70.566406 67.539062 C 70.171875 67.171875 69.722656 66.878906 69.214844 66.652344 C 68.710938 66.429688 68.191406 66.292969 67.652344 66.25 C 67.117188 66.203125 66.601562 66.25 66.117188 66.386719 C 65.628906 66.527344 65.199219 66.746094 64.835938 67.046875 C 64.472656 67.351562 64.195312 67.710938 64.011719 68.132812 Z M 64.011719 68.132812 " fill-opacity="1" fill-rule="nonzero"/><path fill="#ffffff" d="M 59.871094 72.773438 C 60.230469 72.597656 60.644531 72.570312 61.035156 72.539062 C 61.214844 72.535156 61.40625 72.519531 61.574219 72.59375 C 61.914062 72.726562 61.886719 73.136719 61.675781 73.378906 C 61.558594 73.527344 61.449219 73.691406 61.316406 73.824219 C 61.179688 74.03125 60.980469 74.171875 60.714844 74.097656 C 60.238281 73.957031 59.171875 73.328125 59.871094 72.773438 Z M 59.871094 72.773438 " fill-opacity="1" fill-rule="nonzero"/><path fill="#000000" d="M 51 69.542969 C 51.246094 69.960938 51.476562 70.386719 51.65625 70.835938 C 51.914062 71.390625 51.167969 71.890625 50.746094 71.457031 C 50.484375 71.082031 50.542969 70.984375 50.445312 70.832031 C 50.328125 70.503906 50.09375 70.21875 50.011719 69.886719 C 49.902344 69.324219 50.734375 69.042969 51 69.542969 Z M 51 69.542969 " fill-opacity="1" fill-rule="nonzero"/><path fill="#000000" d="M 67.1875 66.957031 C 67.507812 67.421875 67.78125 67.917969 67.960938 68.453125 C 68 68.597656 67.980469 68.757812 67.90625 68.886719 C 67.757812 69.152344 67.390625 69.246094 67.136719 69.089844 C 66.753906 68.777344 66.847656 68.519531 66.722656 68.375 C 66.589844 67.996094 66.253906 67.699219 66.160156 67.3125 C 66.046875 66.730469 66.910156 66.4375 67.1875 66.957031 Z M 67.1875 66.957031 " fill-opacity="1" fill-rule="nonzero"/><path fill="#ffffff" d="M 32.273438 57.464844 C 32.664062 55.894531 33.25 54.378906 33.902344 52.902344 C 34.097656 52.472656 34.296875 52.046875 34.503906 51.625 C 34.566406 51.511719 34.675781 51.429688 34.800781 51.394531 C 35.21875 51.265625 35.601562 51.761719 35.367188 52.132812 C 34.421875 54.085938 33.683594 55.804688 33.140625 58.105469 C 33.042969 58.519531 32.433594 58.601562 32.230469 58.222656 C 32.089844 57.980469 32.21875 57.714844 32.273438 57.464844 Z M 32.273438 57.464844 " fill-opacity="1" fill-rule="nonzero"/><path fill="#ffffff" d="M 65.667969 59.839844 C 66.546875 57.632812 67.101562 55.734375 67.003906 53.5625 C 67.03125 53.046875 66.839844 52.503906 66.941406 52.003906 C 67.117188 51.515625 67.898438 51.671875 67.882812 52.195312 C 68.296875 54.902344 67.632812 57.582031 66.640625 60.089844 C 66.765625 60.253906 67.027344 60.511719 67.292969 60.757812 C 68.777344 62.1875 70.304688 63.59375 71.539062 65.253906 C 72.8125 66.9375 73.753906 68.832031 74.585938 70.765625 C 74.667969 70.984375 74.816406 71.183594 74.855469 71.414062 C 74.925781 71.738281 74.570312 72.039062 74.257812 71.941406 C 73.835938 71.785156 73.765625 71.136719 73.535156 70.78125 C 73.066406 69.773438 72.617188 68.757812 72.046875 67.804688 C 70.738281 65.488281 69.042969 63.832031 67 61.882812 C 66.636719 61.527344 66.242188 61.195312 65.910156 60.808594 C 65.671875 60.550781 65.519531 60.179688 65.667969 59.839844 Z M 65.667969 59.839844 " fill-opacity="1" fill-rule="nonzero"/><path fill="#ffffff" d="M 29.269531 58.824219 C 29.914062 62.664062 30.949219 66.425781 31.613281 70.265625 C 32.625 75.484375 33.402344 80.949219 37.15625 84.296875 C 37.207031 84.335938 37.226562 84.351562 37.234375 84.355469 C 37.488281 84.589844 37.886719 84.675781 37.988281 85.015625 C 38.132812 85.542969 37.460938 85.894531 37.078125 85.523438 C 33.371094 82.855469 32.109375 77.992188 31.234375 73.730469 C 30.617188 70.554688 30.070312 67.367188 29.351562 64.214844 C 28.949219 62.453125 28.53125 60.675781 28.304688 58.890625 C 28.347656 58.375 29.148438 58.3125 29.269531 58.824219 Z M 29.269531 58.824219 " fill-opacity="1" fill-rule="nonzero"/><path fill="#000000" d="M 25.210938 28.324219 C 25.308594 28.050781 25.625 27.914062 25.898438 27.984375 C 26.097656 28.027344 26.203125 28.199219 26.332031 28.335938 C 26.773438 28.742188 26.605469 28.625 26.992188 28.890625 C 28.308594 29.761719 29.097656 30.078125 30.4375 30.535156 C 36.050781 32.410156 41.4375 32.726562 47.453125 32.410156 C 52.539062 32.132812 57.75 31.328125 62.140625 29.152344 C 63.507812 28.460938 64.59375 27.894531 65.46875 26.945312 C 65.917969 26.445312 65.925781 26.398438 66.324219 25.773438 C 66.394531 25.65625 66.507812 25.566406 66.636719 25.53125 C 67.0625 25.398438 67.472656 25.914062 67.226562 26.300781 C 66.398438 27.808594 65.019531 28.886719 63.511719 29.660156 C 61.957031 30.5 60.308594 31.160156 58.636719 31.71875 C 55.15625 32.878906 51.480469 33.273438 47.839844 33.539062 C 41.878906 33.929688 35.785156 33.578125 30.089844 31.652344 C 28.621094 31.164062 27.175781 30.527344 25.949219 29.566406 C 25.605469 29.25 24.992188 28.859375 25.210938 28.324219 Z M 25.210938 28.324219 " fill-opacity="1" fill-rule="nonzero"/><path fill="#000000" d="M 54.933594 18.972656 C 55.21875 18.828125 55.5625 18.9375 55.867188 18.925781 C 57 18.976562 58.132812 19.109375 59.253906 19.277344 C 60.398438 19.445312 61.507812 19.785156 62.578125 20.21875 C 63.761719 20.664062 64.886719 21.296875 65.777344 22.207031 C 66.445312 22.835938 66.945312 23.636719 67.152344 24.539062 C 67.324219 25.1875 66.339844 25.464844 66.152344 24.8125 C 65.730469 22.796875 63.054688 21.292969 60.296875 20.589844 C 58.566406 20.1875 57.308594 20.089844 55.390625 19.972656 C 55.128906 19.980469 54.8125 19.917969 54.71875 19.636719 C 54.601562 19.402344 54.714844 19.101562 54.933594 18.972656 Z M 54.933594 18.972656 " fill-opacity="1" fill-rule="nonzero"/><path fill="#000000" d="M 23.832031 24.964844 C 24.015625 24.355469 24.394531 23.832031 24.804688 23.355469 C 26.265625 21.695312 28.28125 20.644531 30.367188 20.011719 C 33.019531 19.148438 35.792969 18.765625 38.570312 18.671875 C 38.945312 18.695312 39.40625 18.519531 39.714844 18.789062 C 40.023438 19.082031 39.792969 19.648438 39.367188 19.636719 C 36.402344 19.753906 34.121094 20.011719 31.253906 20.882812 C 28.628906 21.585938 25.746094 23.304688 24.933594 25.195312 C 24.742188 25.617188 24.894531 26.136719 24.875 26.46875 C 24.832031 27.046875 23.941406 27.101562 23.8125 26.542969 C 23.722656 26.023438 23.675781 25.480469 23.832031 24.964844 Z M 23.832031 24.964844 " fill-opacity="1" fill-rule="nonzero"/><path fill="#000000" d="M 61.007812 45.863281 C 61.179688 43.035156 61.429688 40.210938 61.6875 37.390625 C 61.820312 36.109375 61.980469 34.835938 62.085938 33.550781 C 62.109375 33.335938 62.144531 33.117188 62.253906 32.929688 C 62.515625 32.523438 63 32.355469 63.40625 32.132812 C 63.886719 31.925781 64.253906 31.625 64.585938 31.667969 C 64.753906 31.710938 64.851562 31.882812 64.835938 32.042969 C 64.894531 32.09375 64.933594 32.164062 64.929688 32.257812 C 64.574219 36.664062 64.285156 41.078125 63.96875 45.488281 C 63.878906 46.179688 63.992188 46.445312 63.507812 46.898438 C 62.992188 47.285156 62.363281 47.53125 61.742188 47.699219 C 60.742188 47.871094 61.023438 46.472656 61.007812 45.863281 Z M 63.179688 46.234375 C 63.347656 45.574219 63.359375 44.597656 63.460938 43.492188 C 63.644531 40.972656 63.832031 38.453125 64.027344 35.933594 C 64.125 34.773438 64.191406 33.601562 64.320312 32.445312 C 64.28125 32.460938 64.242188 32.480469 64.191406 32.515625 C 63.757812 32.730469 63.011719 33.089844 62.878906 33.242188 C 62.871094 33.253906 62.867188 33.257812 62.863281 33.261719 C 62.753906 33.386719 62.699219 34.566406 62.585938 35.433594 C 62.292969 37.984375 62.101562 40.546875 61.890625 43.105469 C 61.796875 44.183594 61.644531 46.46875 61.695312 46.996094 C 62.378906 46.808594 63.1875 46.363281 63.179688 46.234375 Z M 63.179688 46.234375 " fill-opacity="1" fill-rule="nonzero"/></g></g></g><g transform="matrix(1, 0, 0, 1, 181, 110)"><g clip-path="url(#cad6f46694)"><g fill="#000000" fill-opacity="1"><g transform="translate(0.933996, 75.838905)"><g><path d="M 15.609375 -15.09375 L 15.609375 -6.921875 C 15.609375 -4.660156 15.007812 -2.941406 13.8125 -1.765625 C 12.613281 -0.585938 11.035156 0 9.078125 0 L 9.015625 0 C 6.878906 0 5.191406 -0.585938 3.953125 -1.765625 C 2.710938 -2.941406 2.09375 -4.660156 2.09375 -6.921875 L 2.09375 -16.140625 C 2.09375 -20.753906 2.785156 -24.257812 4.171875 -26.65625 C 5.566406 -29.050781 7.332031 -30.773438 9.46875 -31.828125 L 9.140625 -33.0625 L 8.03125 -33.0625 C 6.03125 -33.0625 4.453125 -33.703125 3.296875 -34.984375 C 2.140625 -36.273438 1.539062 -38.03125 1.5 -40.25 C 1.457031 -42.425781 2.035156 -44.191406 3.234375 -45.546875 C 4.429688 -46.898438 6.03125 -47.578125 8.03125 -47.578125 L 25.21875 -47.578125 C 29.625 -47.578125 33.207031 -46.253906 35.96875 -43.609375 C 38.738281 -40.972656 40.125 -36.828125 40.125 -31.171875 C 40.125 -27.078125 39.40625 -23.851562 37.96875 -21.5 C 36.53125 -19.144531 34.632812 -17.488281 32.28125 -16.53125 C 29.925781 -15.570312 27.378906 -15.09375 24.640625 -15.09375 Z M 14.765625 -27.703125 C 14.765625 -26.742188 14.945312 -26.113281 15.3125 -25.8125 C 15.6875 -25.507812 16.351562 -25.359375 17.3125 -25.359375 L 23.390625 -25.359375 C 25.222656 -25.359375 26.550781 -25.78125 27.375 -26.625 C 28.207031 -27.476562 28.625 -28.6875 28.625 -30.25 C 28.625 -31.820312 28.207031 -33.019531 27.375 -33.84375 C 26.550781 -34.675781 25.222656 -35.09375 23.390625 -35.09375 L 17.3125 -35.09375 C 16.351562 -35.09375 15.6875 -34.960938 15.3125 -34.703125 C 14.945312 -34.441406 14.765625 -33.804688 14.765625 -32.796875 Z M 14.765625 -27.703125 "/></g></g></g><g fill="#000000" fill-opacity="1"><g transform="translate(40.205895, 75.838905)"><g><path d="M 23.203125 0.203125 C 18.535156 0.203125 14.585938 -0.820312 11.359375 -2.875 C 8.140625 -4.925781 5.703125 -7.757812 4.046875 -11.375 C 2.390625 -14.988281 1.5625 -19.144531 1.5625 -23.84375 C 1.5625 -28.507812 2.390625 -32.660156 4.046875 -36.296875 C 5.703125 -39.929688 8.140625 -42.785156 11.359375 -44.859375 C 14.585938 -46.929688 18.535156 -47.96875 23.203125 -47.96875 C 27.859375 -47.96875 31.785156 -46.929688 34.984375 -44.859375 C 38.191406 -42.785156 40.625 -39.929688 42.28125 -36.296875 C 43.9375 -32.660156 44.765625 -28.507812 44.765625 -23.84375 C 44.765625 -19.144531 43.9375 -14.988281 42.28125 -11.375 C 40.625 -7.757812 38.191406 -4.925781 34.984375 -2.875 C 31.785156 -0.820312 27.859375 0.203125 23.203125 0.203125 Z M 9.796875 -24.890625 C 9.796875 -23.546875 10.125 -22.273438 10.78125 -21.078125 C 11.4375 -19.878906 12.722656 -18.921875 14.640625 -18.203125 C 16.554688 -17.484375 19.410156 -17.125 23.203125 -17.125 C 26.984375 -17.125 29.820312 -17.484375 31.71875 -18.203125 C 33.613281 -18.921875 34.890625 -19.878906 35.546875 -21.078125 C 36.203125 -22.273438 36.53125 -23.546875 36.53125 -24.890625 C 36.53125 -26.285156 36.203125 -27.535156 35.546875 -28.640625 C 34.890625 -29.753906 33.613281 -30.648438 31.71875 -31.328125 C 29.820312 -32.003906 26.984375 -32.34375 23.203125 -32.34375 C 19.410156 -32.34375 16.554688 -32.003906 14.640625 -31.328125 C 12.722656 -30.648438 11.4375 -29.753906 10.78125 -28.640625 C 10.125 -27.535156 9.796875 -26.285156 9.796875 -24.890625 Z M 9.796875 -24.890625 "/></g></g></g><g fill="#000000" fill-opacity="1"><g transform="translate(0.933996, 125.321537)"><g><path d="M 22.21875 0.203125 C 19.78125 0.203125 17.328125 -0.046875 14.859375 -0.546875 C 12.398438 -1.054688 10.132812 -1.800781 8.0625 -2.78125 C 6 -3.757812 4.332031 -4.957031 3.0625 -6.375 C 1.800781 -7.789062 1.171875 -9.429688 1.171875 -11.296875 C 1.171875 -13.691406 1.929688 -15.609375 3.453125 -17.046875 C 4.984375 -18.492188 6.773438 -19.171875 8.828125 -19.078125 C 10.429688 -19.035156 12.039062 -18.695312 13.65625 -18.0625 C 15.269531 -17.4375 16.914062 -16.816406 18.59375 -16.203125 C 20.269531 -15.597656 21.957031 -15.296875 23.65625 -15.296875 C 25.351562 -15.296875 26.523438 -15.507812 27.171875 -15.9375 C 27.828125 -16.375 28.15625 -16.960938 28.15625 -17.703125 C 28.15625 -18.578125 27.695312 -19.296875 26.78125 -19.859375 C 25.875 -20.429688 24.722656 -20.867188 23.328125 -21.171875 L 20.125 -21.953125 C 16.8125 -22.734375 13.847656 -23.613281 11.234375 -24.59375 C 8.617188 -25.582031 6.5625 -26.890625 5.0625 -28.515625 C 3.5625 -30.148438 2.8125 -32.34375 2.8125 -35.09375 C 2.8125 -38.09375 3.640625 -40.539062 5.296875 -42.4375 C 6.953125 -44.332031 9.191406 -45.710938 12.015625 -46.578125 C 14.847656 -47.453125 18.007812 -47.890625 21.5 -47.890625 C 25.070312 -47.890625 28.207031 -47.519531 30.90625 -46.78125 C 33.601562 -46.039062 35.703125 -44.972656 37.203125 -43.578125 C 38.710938 -42.191406 39.46875 -40.492188 39.46875 -38.484375 C 39.46875 -36.347656 38.890625 -34.679688 37.734375 -33.484375 C 36.578125 -32.285156 35.039062 -31.6875 33.125 -31.6875 C 31.863281 -31.6875 30.546875 -31.90625 29.171875 -32.34375 C 27.804688 -32.78125 26.367188 -33.203125 24.859375 -33.609375 C 23.359375 -34.023438 21.757812 -34.234375 20.0625 -34.234375 C 18.539062 -34.234375 17.382812 -34.003906 16.59375 -33.546875 C 15.8125 -33.097656 15.421875 -32.5 15.421875 -31.75 C 15.421875 -30.84375 15.941406 -30.171875 16.984375 -29.734375 C 18.035156 -29.296875 19.757812 -28.769531 22.15625 -28.15625 L 25.8125 -27.3125 C 28.8125 -26.570312 31.441406 -25.675781 33.703125 -24.625 C 35.972656 -23.582031 37.738281 -22.210938 39 -20.515625 C 40.269531 -18.816406 40.90625 -16.597656 40.90625 -13.859375 C 40.90625 -10.546875 40.117188 -7.851562 38.546875 -5.78125 C 36.984375 -3.707031 34.804688 -2.191406 32.015625 -1.234375 C 29.234375 -0.273438 25.96875 0.203125 22.21875 0.203125 Z M 22.21875 0.203125 "/></g></g></g><g fill="#000000" fill-opacity="1"><g transform="translate(40.532581, 125.321537)"><g><path d="M 18.03125 -0.125 C 15.894531 -0.125 13.859375 -0.320312 11.921875 -0.71875 C 9.984375 -1.113281 8.285156 -1.863281 6.828125 -2.96875 C 5.367188 -4.082031 4.210938 -5.695312 3.359375 -7.8125 C 2.515625 -9.925781 2.09375 -12.703125 2.09375 -16.140625 C 2.09375 -19.234375 2.503906 -21.890625 3.328125 -24.109375 C 4.160156 -26.328125 5.148438 -28.085938 6.296875 -29.390625 C 7.453125 -30.703125 8.507812 -31.515625 9.46875 -31.828125 L 9.140625 -33.0625 L 8.03125 -33.0625 C 6.03125 -33.0625 4.453125 -33.703125 3.296875 -34.984375 C 2.140625 -36.273438 1.539062 -38.03125 1.5 -40.25 C 1.457031 -42.425781 2.035156 -44.164062 3.234375 -45.46875 C 4.429688 -46.78125 6.03125 -47.4375 8.03125 -47.4375 L 31.5 -47.4375 C 36.15625 -47.4375 38.484375 -45.257812 38.484375 -40.90625 C 38.484375 -38.945312 37.914062 -37.378906 36.78125 -36.203125 C 35.65625 -35.023438 33.894531 -34.4375 31.5 -34.4375 L 17.96875 -34.4375 C 16.351562 -34.4375 15.546875 -33.5 15.546875 -31.625 L 15.546875 -26.71875 C 17.722656 -27.195312 20 -27.765625 22.375 -28.421875 C 24.75 -29.078125 27.003906 -29.40625 29.140625 -29.40625 C 31.191406 -29.40625 32.726562 -28.957031 33.75 -28.0625 C 34.769531 -27.164062 35.28125 -25.957031 35.28125 -24.4375 C 35.28125 -22.875 34.769531 -21.644531 33.75 -20.75 C 32.726562 -19.851562 31.191406 -19.382812 29.140625 -19.34375 C 27.003906 -19.300781 24.738281 -19.601562 22.34375 -20.25 C 19.945312 -20.90625 17.660156 -21.472656 15.484375 -21.953125 L 15.484375 -13.390625 C 15.484375 -12.566406 15.710938 -11.988281 16.171875 -11.65625 C 16.628906 -11.332031 17.359375 -11.453125 18.359375 -12.015625 C 20.535156 -13.285156 22.671875 -14.300781 24.765625 -15.0625 C 26.859375 -15.820312 28.90625 -16.203125 30.90625 -16.203125 C 33.738281 -16.203125 35.882812 -15.460938 37.34375 -13.984375 C 38.800781 -12.503906 39.53125 -10.566406 39.53125 -8.171875 C 39.53125 -5.597656 38.753906 -3.613281 37.203125 -2.21875 C 35.660156 -0.820312 33.171875 -0.125 29.734375 -0.125 Z M 18.03125 -0.125 "/></g></g></g></g></g><g transform="matrix(1, 0, 0, 1, 174, 246)"><g clip-path="url(#c9278e0120)"><g fill="#000000" fill-opacity="1"><g transform="translate(0.712126, 7.690277)"><g><path d="M 2.90625 -5.226562 L 4.410156 -5.226562 L 4.410156 -3.140625 L 2.90625 -3.140625 Z M 4.1875 -0.992188 L 4.1875 -2.300781 L 6.429688 -2.300781 L 6.429688 -3.140625 L 5.457031 -3.140625 L 5.457031 -5.226562 L 6.457031 -5.226562 L 6.457031 -6.0625 L 0.863281 -6.0625 L 0.863281 -5.226562 L 1.863281 -5.226562 L 1.863281 -3.140625 L 0.902344 -3.140625 L 0.902344 -2.300781 L 3.132812 -2.300781 L 3.132812 -0.992188 L 0.34375 -0.992188 L 0.34375 -0.144531 L 7.007812 -0.144531 L 7.007812 -0.992188 Z M 4.1875 -0.992188 "/></g></g></g><g fill="#000000" fill-opacity="1"><g transform="translate(8.869448, 7.690277)"><g/></g></g><g fill="#000000" fill-opacity="1"><g transform="translate(11.665951, 7.690277)"><g><path d="M 1.015625 -2.109375 C 2.292969 -2.339844 3.210938 -2.988281 3.675781 -3.859375 C 4.136719 -3.003906 5.074219 -2.371094 6.367188 -2.148438 L 6.765625 -2.980469 C 5.105469 -3.226562 4.234375 -4.203125 4.226562 -5.21875 L 6.441406 -5.21875 L 6.441406 -6.046875 L 0.894531 -6.046875 L 0.894531 -5.21875 L 3.109375 -5.21875 C 3.101562 -4.203125 2.230469 -3.203125 0.605469 -2.949219 Z M 0.34375 -1.046875 L 0.34375 -0.191406 L 7.007812 -0.191406 L 7.007812 -1.046875 Z M 0.34375 -1.046875 "/></g></g></g><g fill="#000000" fill-opacity="1"><g transform="translate(19.823272, 7.690277)"><g/></g></g><g fill="#000000" fill-opacity="1"><g transform="translate(22.619776, 7.690277)"><g><path d="M 6.457031 -6.671875 L 5.394531 -6.671875 L 5.394531 -1.773438 L 6.457031 -1.773438 Z M 1.476562 -4.417969 C 1.476562 -4.992188 1.894531 -5.335938 2.445312 -5.335938 C 3.003906 -5.335938 3.417969 -4.992188 3.417969 -4.417969 C 3.417969 -3.851562 3.003906 -3.507812 2.445312 -3.507812 C 1.894531 -3.507812 1.476562 -3.851562 1.476562 -4.417969 Z M 4.449219 -4.417969 C 4.449219 -5.472656 3.585938 -6.230469 2.445312 -6.230469 C 1.316406 -6.230469 0.449219 -5.472656 0.449219 -4.417969 C 0.449219 -3.363281 1.316406 -2.613281 2.445312 -2.613281 C 3.585938 -2.613281 4.449219 -3.363281 4.449219 -4.417969 Z M 4.507812 -2.140625 L 3.417969 -2.140625 L 3.417969 -1.996094 C 3.417969 -1.183594 2.675781 -0.375 1.101562 -0.152344 L 1.503906 0.664062 C 2.691406 0.472656 3.53125 -0.0390625 3.960938 -0.742188 C 4.394531 -0.0390625 5.234375 0.472656 6.414062 0.664062 L 6.816406 -0.152344 C 5.25 -0.375 4.507812 -1.191406 4.507812 -1.996094 Z M 4.507812 -2.140625 "/></g></g></g></g></g><g clip-path="url(#9897197e93)"><g clip-path="url(#8c201e5ca1)"><path stroke-linecap="butt" transform="matrix(0.75, 0, 0, 0.75, 265.011433, 223.618754)" fill="none" stroke-linejoin="miter" d="M 8.380589 -0.00208882 C 3.755589 -0.00208882 0.000380337 3.75312 0.000380337 8.383328 C 0.000380337 13.013537 3.755589 16.763537 8.380589 16.763537 C 13.010798 16.763537 16.766006 13.013537 16.766006 8.383328 C 16.766006 3.75312 13.010798 -0.00208882 8.380589 -0.00208882 Z M 8.380589 -0.00208882 " stroke="#000000" stroke-width="4" stroke-opacity="1" stroke-miterlimit="4"/></g></g><g transform="matrix(1, 0, 0, 1, 268, 226)"><g clip-path="url(#962262bdb4)"><g fill="#000000" fill-opacity="1"><g transform="translate(0.708212, 5.282502)"><g><path d="M 0.859375 0.046875 C 0.691406 0.046875 0.5625 0.00390625 0.46875 -0.078125 C 0.382812 -0.171875 0.34375 -0.300781 0.34375 -0.46875 L 0.34375 -3.40625 C 0.34375 -3.570312 0.382812 -3.695312 0.46875 -3.78125 C 0.5625 -3.875 0.691406 -3.921875 0.859375 -3.921875 C 1.015625 -3.921875 1.132812 -3.875 1.21875 -3.78125 C 1.3125 -3.695312 1.359375 -3.570312 1.359375 -3.40625 L 1.359375 -0.46875 C 1.359375 -0.300781 1.316406 -0.171875 1.234375 -0.078125 C 1.148438 0.00390625 1.023438 0.046875 0.859375 0.046875 Z M 0.859375 0.046875 "/></g></g></g><g fill="#000000" fill-opacity="1"><g transform="translate(2.364115, 5.282502)"><g><path d="M 1.765625 0.046875 C 1.609375 0.046875 1.484375 0.00390625 1.390625 -0.078125 C 1.304688 -0.171875 1.265625 -0.296875 1.265625 -0.453125 L 1.265625 -3.046875 L 0.40625 -3.046875 C 0.125 -3.046875 -0.015625 -3.179688 -0.015625 -3.453125 C -0.015625 -3.722656 0.125 -3.859375 0.40625 -3.859375 L 3.125 -3.859375 C 3.40625 -3.859375 3.546875 -3.722656 3.546875 -3.453125 C 3.546875 -3.179688 3.40625 -3.046875 3.125 -3.046875 L 2.265625 -3.046875 L 2.265625 -0.453125 C 2.265625 -0.296875 2.222656 -0.171875 2.140625 -0.078125 C 2.054688 0.00390625 1.929688 0.046875 1.765625 0.046875 Z M 1.765625 0.046875 "/></g></g></g></g></g></svg>